<svg xmlns="http://www.w3.org/2000/svg" viewBox="0 0 2866 428" fill="none" preserveAspectRatio="xMinYMid meet" role="img">
  <g transform="translate(0 15.533554077148438)">
    <path d="M553.764 253.376C516.322 286.358 450.659 297.804 429.863 298.976C424.437 299.283 419.895 294.887 419.959 289.461L419.774 120.523V5.69028C419.774 4.93052 419.156 4.31286 418.396 4.31286H357.031C356.268 4.31286 355.654 4.93052 355.654 5.69028V317.224C355.654 317.984 356.265 318.602 357.031 318.602H364.368V318.662L557.853 318.703C558.613 318.703 559.231 318.085 559.231 317.326L559.008 255.76C558.987 253.028 555.736 251.63 553.764 253.376Z" fill="#232222" />
    <path d="M729.711 0H717.649C631.767 0 561.505 70.2598 561.505 156.138V165.592C561.505 251.47 631.767 321.73 717.649 321.73H729.711C815.595 321.73 885.861 251.47 885.861 165.592V156.138C885.861 70.2598 815.598 0 729.711 0ZM748.126 302.02C697.941 310.467 646.418 253.584 633 174.961C619.578 96.338 649.4 25.7707 699.585 17.3236C749.77 8.87636 801.292 65.7593 814.711 144.382C828.112 223.005 798.314 293.572 748.126 302.02Z" fill="#232222" />
    <path d="M1783.82 4.19243L1703.51 4.11123H1703.36C1701.66 4.17213 1700.3 5.54954 1700.3 7.25464C1700.3 7.9332 1700.53 8.57116 1700.89 9.08443C1700.89 9.10473 1700.89 9.12503 1700.91 9.14533L1714.42 29.8791C1726.07 49.6269 1727.2 73.8549 1717.46 94.6118L1688.87 155.563C1687.86 157.7 1684.87 157.802 1683.73 155.729L1601.29 6.2919C1600.67 5.16097 1599.47 4.46211 1598.2 4.46211H1536.73C1535.69 4.46211 1535.01 5.59304 1535.54 6.51809L1634.07 179.98V316.738C1634.07 317.498 1634.68 318.116 1635.44 318.116H1696.81C1697.57 318.116 1698.19 317.498 1698.19 316.738V180.534L1786.16 8.06079C1787.07 6.3151 1785.8 4.21853 1783.82 4.19823L1783.82 4.19243Z" fill="#232222" />
    <path d="M1272.36 4.31286H1210.99C1210.23 4.31286 1209.61 4.93052 1209.61 5.69028V317.224C1209.61 317.984 1210.23 318.602 1210.99 318.602H1272.36C1273.11 318.602 1273.73 317.984 1273.73 317.224V5.69028C1273.73 4.93052 1273.11 4.31286 1272.36 4.31286Z" fill="#232222" />
    <path d="M1068.55 164.378C1090.26 163.74 1113.19 158.419 1125.75 151.43C1163.04 130.653 1161.32 84.6647 1161.32 84.6647C1160.33 53.1813 1142.39 28.2747 1123.05 17.1597C1099.64 3.69871 1044.73 4.02929 1044.73 4.02929L917.645 4.06989C916.885 4.06989 916.267 4.68755 916.267 5.4473L916.328 317.187C916.328 317.947 916.946 318.564 917.706 318.564H980.88C981.64 318.564 982.258 317.927 982.258 317.167L978.601 24.5165H1020.13C1081.5 24.5165 1094.43 61.1761 1094.43 85.3433C1094.43 111.975 1084.99 148.226 1038.71 148.226L991.016 148.02C989.369 148.02 988.406 149.85 989.311 151.204L1102.18 317.019C1102.84 317.985 1103.91 318.538 1105.07 318.538H1174.72C1175.83 318.538 1176.49 317.286 1175.85 316.361L1068.49 164.334L1068.55 164.375L1068.55 164.378Z" fill="#232222" />
    <path d="M1527.01 69.371V69.3507L1526.52 5.80978C1526.52 5.05003 1525.9 4.45267 1525.14 4.45267L1330.05 4.35117V4.39177H1325.96C1325.2 4.39177 1324.58 5.00943 1324.58 5.76919V317.303C1324.58 318.063 1325.2 318.68 1325.96 318.68H1387.32C1387.67 318.68 1387.98 318.535 1388.23 318.332H1388.29V318.292C1388.54 318.045 1388.7 317.695 1388.7 317.306V178.042C1394 177.468 1455.78 171.425 1498.42 199.64C1499.14 200.112 1499.45 200.42 1500.17 200.893H1500.21C1500.42 201.017 1500.65 201.098 1500.89 201.098C1501.61 201.098 1502.17 200.545 1502.23 199.846C1502.23 199.805 1502.25 199.805 1502.25 199.764V133.245C1502.23 132.506 1501.63 131.929 1500.89 131.929C1500.64 131.929 1500.41 132.01 1500.21 132.135C1500.17 132.135 1500.11 132.175 1500.05 132.216C1459.68 160.823 1394.41 155.644 1388.7 155.13V33.9207C1389.75 30.2002 1393.2 27.4686 1397.27 27.5904C1464.28 29.6463 1507.34 60.3874 1521.95 71.833C1522.18 72.0186 1522.45 72.1606 1522.71 72.265H1522.76C1523.1 72.3897 1523.48 72.4709 1523.86 72.4709C1525.26 72.4709 1526.42 71.5662 1526.85 70.3135C1526.87 70.2526 1526.89 70.1888 1526.91 70.1279C1526.97 69.8814 1527.01 69.6146 1527.03 69.3478L1527.01 69.371Z" fill="#232222" />
    <path d="M296.789 170.538L179.914 171.895C174.387 171.956 171.469 178.451 175.106 182.621C183.081 191.744 193.602 207.467 201.227 232.556C205.377 246.223 210.536 286.438 190.499 298.11C183.716 303.164 171.635 306.76 152.112 298.664C137.025 292.931 117.729 276.86 106.427 261.16C85.5265 230.706 79.4857 209.848 73.3608 184.303C53.5303 78.2451 102.173 19.2076 147.057 18.1173C181.274 17.2734 228.995 61.1275 252.978 135.54C253.657 137.616 256.04 138.582 257.931 137.491C272.994 128.717 291.285 112.359 298.848 97.7261C305.712 84.4102 303.021 72.7181 295.991 62.6876C257.557 7.8461 196.766 1.06342 157.433 1.53609C67.4592 2.62642 -2.88716 80.7767 0.091187 166.922C1.69491 213.075 22.9435 282.575 107.059 315.457C132.583 322.668 148.017 324.437 176.788 323.286C250.298 317.347 251.284 236.895 240.229 201.343C238.832 196.842 242.08 195.178 246.108 194.54C248.637 194.128 251.473 194.108 253.63 194.026H269.691C274.337 194.026 281.32 195.514 281.32 214.572C281.32 237.802 275.34 276.874 238.75 313.461C238.689 313.522 238.646 313.627 238.585 313.688C238.051 314.241 237.721 315.004 237.721 315.845C237.721 317.243 238.626 318.394 239.878 318.826C239.919 318.826 239.96 318.846 240.003 318.867C240.29 318.948 240.577 319.012 240.888 319.012H310.515C312.406 319.012 313.946 317.492 313.946 315.602L314.439 188.07C314.479 178.309 306.527 170.419 296.766 170.52L296.786 170.541L296.789 170.538Z" fill="#232222" />
  </g>
  <g transform="translate(1859 0)">
    <path d="M799.391 338.277L730.294 318.088C699.336 328.855 684.978 341.417 684.978 364.746C684.978 393.907 718.627 411.404 759.008 411.404C803.874 411.404 835.731 394.806 835.731 368.336C835.731 351.288 821.826 345.007 799.391 338.277ZM777.406 240.474C807.914 240.474 837.08 200.993 837.08 153.439C837.08 127.419 827.208 107.677 803.431 107.677C772.922 107.677 743.756 147.158 743.756 194.712C743.756 220.732 753.628 240.474 777.406 240.474ZM809.263 91.9772C822.722 91.9772 833.939 94.6682 843.361 99.6037L922.327 94.2188L915.596 123.379H898.097L861.307 113.508C871.179 124.725 876.561 140.427 876.561 156.577C876.561 217.592 829.899 256.174 771.574 256.174C763.946 256.174 757.215 255.278 750.934 253.483C741.961 259.314 735.23 264.699 735.23 271.427C735.23 279.503 741.961 281.745 753.625 284.885L818.232 303.279C843.358 310.456 871.625 325.262 871.625 357.563C871.625 389.418 840.667 428 751.83 428C690.81 428 645.494 401.98 645.494 370.125C645.494 335.133 680.492 322.571 720.423 312.251C713.245 307.315 707.86 299.239 707.86 289.371C707.86 272.323 719.077 261.107 738.818 249.443C715.936 238.676 704.269 216.243 704.269 191.569C704.269 130.554 750.931 91.9714 809.257 91.9714L809.263 91.9772Z" fill="#232222" />
    <path d="M532.45 91.9775L517.195 153.889L501.492 203.687H504.632C530.208 159.274 584.943 91.9775 628.464 91.9775C651.346 91.9775 658.973 104.09 658.973 123.832C658.973 129.664 657.627 137.74 656.282 143.571L619.492 282.2C617.247 290.726 615.455 298.352 615.455 301.939C615.455 306.425 617.699 308.67 621.736 308.67C630.259 308.67 643.272 299.698 663.462 275.023L672.435 284.445C645.067 325.271 625.324 338.729 602.892 338.729C585.842 338.729 575.075 326.617 575.075 308.223C575.075 297.906 576.87 286.689 581.356 269.641L615.005 144.92C616.351 139.088 617.25 133.703 617.25 130.116C617.25 123.835 615.005 120.694 609.173 120.694C581.356 120.694 511.813 187.991 490.724 271.885L475.02 334.246H434.19L484.889 130.565L450.79 116.658L453.481 107.236L521.229 91.9833H532.447L532.45 91.9775Z" fill="#232222" />
    <path d="M405.923 91.9737L359.262 282.196C357.017 290.722 355.225 298.348 355.225 301.935C355.225 306.422 357.467 308.666 361.506 308.666C370.03 308.666 383.042 299.694 403.232 275.019L412.205 284.441C384.837 325.267 365.094 338.726 342.662 338.726C325.612 338.726 314.845 326.613 314.845 308.219C314.845 297.902 317.089 286.685 321.126 269.637L355.674 130.559L321.576 116.651L324.267 107.23L394.709 91.9766H405.926L405.923 91.9737ZM393.36 60.1192C377.207 60.1192 365.094 47.5571 365.094 31.8546C365.094 14.357 379.452 0 396.501 0C412.654 0 424.768 12.562 424.768 28.2646C424.768 45.7621 410.41 60.1192 393.36 60.1192Z" fill="#232222" />
    <path d="M174.536 39.932H151.655L123.388 174.075H144.474C202.353 174.075 244.529 151.642 244.529 96.9106C244.529 62.365 224.788 39.9349 174.536 39.9349V39.932ZM118.902 193.814L101.403 277.259C100.057 283.99 99.1584 290.717 99.1584 293.858C99.1584 312.252 110.822 315.842 139.538 316.738L135.948 334.235H7.41114e-06L4.03678 316.738C33.6491 315.842 50.6985 311.353 56.5305 283.987L100.948 76.2697C102.293 69.5392 103.192 62.8116 103.192 59.6711C103.192 41.2775 91.5283 37.6875 62.8121 36.7915L66.4022 19.294H192.928C257.985 19.294 290.738 47.5585 290.738 96.9077C290.738 152.538 244.076 183.494 183.506 189.775L235.104 275.015C253.049 304.176 261.126 316.288 292.084 316.738L288.494 334.235H227.923C212.669 320.328 203.696 304.625 190.234 281.296L140.432 193.811H118.896L118.902 193.814Z" fill="#232222" />
  </g>
</svg>
